<svg version="1" xmlns="https://www.w3.org/2000/svg" width="933.333" height="933.333" viewBox="0 0 700.000000 700.000000"><path d="M376.5 189c-3.2 10.7-6.4 21.5-7.2 23.9-.8 2.4-1.6 5.1-1.8 6-.2.9-3.1 10.8-6.5 22.1-3.3 11.3-8.1 27.5-10.6 36s-6.5 22-8.8 30c-2.4 8-8.7 29.3-14.1 47.5-5.3 18.1-11 37.3-12.5 42.5-3 9.5-15 50.6-15.5 52.5-.1.5-.5 1.7-.8 2.5-.6 1.5-5.4 18.1-6.1 21-.2.8-2.5 8.5-5 17-2.6 8.5-6.3 20.8-8.2 27.3-2 6.5-3.3 12.1-2.9 12.5.3.3 11.5.6 24.9.6l24.4.1 3.6-12c2-6.6 3.9-12.8 4.1-13.8.2-1 1.6-5.7 3-10.5 6.3-20.5 9.2-30.3 17.1-57.7.8-2.8 2.2-7.3 3-10 .8-2.8 2.3-7.9 3.3-11.5 1-3.6 6.7-22.7 12.6-42.5 5.8-19.8 11.5-38.9 12.5-42.5 1-3.6 3.9-13.5 6.4-22 4.9-16.3 7.5-25 10.8-36.5 1.1-3.9 2.4-8.1 2.9-9.5 1.1-3.3 5.2-17.2 5.5-18.6.1-.6 3.6-12.5 7.7-26.5 11.1-37.2 13.7-46.1 13.7-46.8 0-.3-11.2-.6-24.9-.6h-24.9l-5.7 19.5zM216.9 255.8c-11.3 5.3-23.4 11-27 12.6-3.5 1.7-10.9 5.1-16.5 7.7-5.5 2.6-12.9 6.1-16.5 7.7-12 5.5-47.4 22-56.4 26.2-4.9 2.3-14.8 6.9-22 10.2-13.6 6.3-17.6 8.1-36.8 17.2-6.5 3.1-12 5.6-12.2 5.6-.1 0-5.4 2.4-11.6 5.3-6.3 3-12.9 6-14.6 6.8L0 356.5v43l5.8 2.7c3.1 1.5 11 5.2 17.6 8.2 6.5 3.1 12 5.6 12.1 5.6.2 0 6.5 2.9 14 6.5 7.6 3.6 13.8 6.5 14 6.5.1 0 4.9 2.2 10.6 4.9 5.7 2.7 13.6 6.3 17.4 8.1 3.9 1.8 10.2 4.7 14 6.5 3.9 1.8 11.9 5.6 17.9 8.4 5.9 2.8 11 5.1 11.1 5.1.2 0 5.6 2.5 12.1 5.6 13.4 6.3 11.6 5.5 51.4 23.9 29.6 13.8 40 18.5 40.6 18.5.1 0 .3-11.7.3-26.1l.1-26-7.8-3.5c-4.2-1.9-8.6-3.9-9.7-4.4-1.1-.5-14.6-6.4-30-13.1-15.4-6.7-29.8-13-32-14-2.2-1-24.2-10.6-49-21.4-57.7-25.3-52.9-23-51.3-24.2.7-.5 5.4-2.7 10.3-4.8 5-2.1 11.3-4.8 14-6 2.8-1.3 15.6-6.8 28.5-12.5 12.9-5.6 25.4-11 27.8-12.1 2.4-1.1 16.8-7.4 32-14 15.2-6.7 30.4-13.3 33.7-14.8 3.3-1.5 12.2-5.4 19.7-8.7l13.7-5.9v-26.3c0-14.4-.4-26.2-.7-26.1-.4 0-10 4.4-21.3 9.7zM461.1 272.2l-.1 26.3 15.2 6.5c8.4 3.5 17.6 7.4 20.3 8.6 2.8 1.2 14.7 6.3 26.5 11.4 11.8 5.1 22.9 9.8 24.5 10.5 1.7.8 11.1 4.8 21 9s19.4 8.3 21 9c1.7.8 14.7 6.4 29 12.5s26.3 11.4 26.8 11.9c.4.4-1.4 1.6-4 2.6s-7.3 2.9-10.3 4.3c-3 1.4-21.7 9.4-41.5 17.9-19.8 8.5-37.1 15.9-38.5 16.5-1.4.6-22.1 9.4-46 19.7l-43.5 18.6-.2 26.3c-.1 14.4.1 26.2.4 26.2.3 0 7.9-3.3 16.7-7.4 8.9-4.1 27.1-12.4 40.6-18.6 13.5-6.2 27.4-12.6 31-14.2 31.1-14.3 56.5-26 60.6-27.8 2.7-1.2 8.1-3.7 11.9-5.5 3.9-1.8 9.7-4.5 13-6 3.3-1.5 7.4-3.3 9-4.1 1.7-.7 14.7-6.7 29-13.3l26-11.9V355l-35-16.1c-19.2-8.8-37.2-17.1-40-18.3-2.7-1.3-7.2-3.4-10-4.6-2.7-1.3-10.8-5-18-8.2-7.1-3.3-15.5-7.1-18.5-8.5-18.4-8.4-41.5-19-47.5-21.8-3.8-1.8-9.2-4.3-12-5.5-2.7-1.3-10.8-5-18-8.2-7.1-3.3-15.5-7.2-18.5-8.5-3-1.4-8.8-4.1-12.8-5.9-4.1-1.9-7.5-3.4-7.7-3.4-.1 0-.3 11.8-.4 26.2z"/></svg>