<?xml version="1.0" encoding="utf-8"?>
<!-- Generator: Adobe Illustrator 26.5.0, SVG Export Plug-In . SVG Version: 6.00 Build 0)  -->
<svg version="1.1" xmlns="http://www.w3.org/2000/svg" xmlns:xlink="http://www.w3.org/1999/xlink" x="0px" y="0px"
	 viewBox="0 0 4096 4096" style="enable-background:new 0 0 4096 4096;" xml:space="preserve">
<style type="text/css">
	.st0{fill:#EFE7C0;}
	.st1{fill:#DBD5BB;}
	.st2{stroke:#000000;stroke-miterlimit:10;}
	.st3{display:none;}
	.st4{display:inline;}
	.st5{fill:#FF6363;}
	.st6{fill:#CE4A4A;}
	.st7{fill:#FFFFFF;}
	.st8{fill:#B9BBAE;}
	.st9{fill:none;stroke:#DDE3E7;stroke-width:65;stroke-miterlimit:10;}
	.st10{fill:none;stroke:#DDE3E7;stroke-width:95;stroke-miterlimit:10;}
	.st11{fill:none;stroke:#000000;stroke-width:75;stroke-miterlimit:10;}
	.st12{fill:none;stroke:#000000;stroke-width:80;stroke-linecap:round;stroke-linejoin:round;stroke-miterlimit:10;}
</style>
<g id="背景">
	<rect class="st0" width="4096" height="4096.01"/>
</g>
<g id="普通帽子">
	<g id="阴影">
		<path id="阴影主体" class="st1" d="M4096,4096.01V2299.39L2795.1,604.02L915,1773.73l1172.6,1172.6
			c-225.63,57.1-564.09,224.19-1281.57-190.13l1462.14,1339.81"/>
	</g>
	<g id="帽子">
		<path id="帽子主体" class="st2" d="M3191.48,1576.77c0-6.91-2.75-13.54-7.63-18.43c-4.88-4.88-11.52-7.63-18.43-7.63h-259.35
			c-6.91,0-13.54-2.75-18.43-7.63c-4.88-4.88-7.63-11.52-7.63-18.43l-4.39-726.23c0-72.89-28.99-142.86-80.52-194.4
			c-51.54-51.54-121.52-80.52-194.4-80.52H1498.14c-72.89,0-142.86,28.99-194.4,80.52c-51.54,51.54-80.52,121.52-80.52,194.4
			l-4.39,726.23c0,6.91-2.75,13.54-7.63,18.43c-4.88,4.88-11.52,7.63-18.43,7.63H933.42c-6.91,0-13.54,2.75-18.43,7.63
			c-4.88,4.88-7.63,11.52-7.63,18.43v178.54c0,6.91,2.75,13.54,7.63,18.43c4.88,4.88,11.52,7.63,18.43,7.63h2232
			c6.91,0,13.54-2.75,18.43-7.63s7.63-11.52,7.63-18.43V1576.77z"/>
	</g>
</g>
<g id="圣诞帽_1_" class="st3">
	<g id="阴影_1_" class="st4">
		<path id="阴影主体_1_" class="st1" d="M4096,4096.01V3081.23L2680.38,1149.71L988,1847.17l1101.69,1122.97
			c-225.63,57.1-566.18,200.38-1283.66-213.94l1077.94,1339.81"/>
	</g>
	<g id="圣诞帽" class="st4">
		<g>
			<path class="st5" d="M806.03,686.7c0,0,16.84-226.57,140.27-285.17c123.43-58.6,493.74-164.07,824.75-23.44
				c331.03,140.64,493.71,222.68,521.77,242.21c28.06,19.52,241.29,109.38,274.93,257.82c33.66,148.44,286.14,253.92,280.53,378.9
				c-5.61,125.01,157.1,105.48,100.99,285.18l-1873.93,19.52c0,0,11.21-69.31,95.37-101.07c0,0-72.91-55.16,72.95-215.33
				c0,0,28.04-27.36,11.21-117.2c-16.82-89.84,67.32-89.83,84.16-105.47c16.84-15.63-117.81-167.98,16.84-207.04
				c0,0-106.6-74.2-44.89-125c0,0-252.49,70.31-347.86,54.68L806.03,686.7z"/>
			<path class="st6" d="M1502.86,600.28c0,0-281.33-97.19-317.13-30.78C1149.95,635.91,1303.38,720.91,1502.86,600.28z"/>
			<path class="st6" d="M1579.57,893.74c0,0,92.07,74.65,306.89,41.23c214.81-33.43,352.92-229.25,424.53-94.23
				c71.6,135.03-148.33,123.31-281.32,127.22C1896.68,971.86,1374.96,979.67,1579.57,893.74z"/>
			<path class="st6" d="M2080.82,1233.59c0,0-235.28,19.51-240.39,42.96c-5.11,23.44,184.13-3.91,429.63,27.35
				c245.51,31.24,496.13,31.24,552.38,70.31C2878.71,1413.27,2929.86,1225.76,2080.82,1233.59z"/>
			<path class="st6" d="M2224.77,1498.62c0,0-909.88-64.08-721.91-192.16c0,0,45.75-102.02-54.18-49.44
				c-99.93,52.58-155.23,187.77-7.2,261.73C1589.52,1592.72,1939.07,1599.59,2224.77,1498.62z"/>
			<path class="st7" d="M1310.93,1510.93c-5.16-4.15-21.96-11.7-28.94-18.19c-0.88,2.77-1.49,5.55-1.85,8.37
				c-10.62-8.33-30.1-11.68-40.69-17.39c0.52,5.8-0.89,12.11-0.33,18.11c-3.65-7.21-14.93-14.69-19.65-22.12
				c-10.36,11.82-26.57,21.58-45.75,26.82c-0.45-2.25-0.93-4.5-1.4-6.75c-22.07,0.21-46.42,4.27-65.18,9.48
				c7.46-4.6,12.68-10.74,16.94-13.88c-2.5,2.46-17.65,11.3-22.97,14.21c-12.2-14.49-29.72-25.92-53.86-25.38
				c3.46,5.35,5.45,14.47,9.55,20.87c-21.38-12.53-47.69-18.99-76.24-16.98c4.86,3.78,9.89,10.06,16.19,14.43
				c-9.99-2.3-28.88-0.83-39.31-2.72c4.21,5.93,3.52,11.73,10.32,18.06c-15.16,10.44-22.9,24.64-40.85,35.46
				c5.9,0.83,11.11,0.31,16.99,1.13c-12.08,12.62-29.2,23.76-34.59,37.76c3.5,0.5,7,0.89,10.56,1.22
				c-7.89,7.93-10.62,22.82-16.69,30.38c5.34-1.99,13.67-5.04,19.48-7.11c-17.27,19.28-13.17,85.12,1.74,98.02
				c-8.11,5.75-10.47,12.01-15.35,18.29c7.22,0,15.76,0.26,22.96,1.17c-7.06,4.83-11.98,18.15-16.68,22.07
				c3.35,0.53,6.7,1,10.1,1.42c0.78,5.99-5.06,14.22-4.25,18.02c15.65,7.22,11.22,22.42,0.01,35.51c4.69-1.97,15.87-3.91,22.1-6.9
				c-1.87,10.75,3.8,23.67,2.26,34.43c2.78-2.28,11.27-6.52,15.73-10.44c-1.61,10.93,7.14,19.44,8.26,29.76
				c5.17-3.7,11.62-2.93,18.46-10.91c2.56,10.05,14.37,23.62,27.69,30.75c0.63-3.84,0.55-7.5,2.22-11.21
				c4.8,7.84,20.34,17.76,27.81,26.2c1.2-4.13,2.86-7.79,5.08-10.88c11.34,15.78,15.76,8.91,30.82,15.04
				c7.37-23.46,38.17-13.07,60.2-3.81c1.19-3.77,0.74-7.13,1.78-10.93c15.58,6.59,34.3,8.82,52.15,13.79
				c-0.77,0.1,5.42-6.26,6.58-6.87c9.24,5.39,25.6,7.64,35.31,11.73c0.67-0.04,11.85-6.97,13.2-7.6c4.94,4.22,18.47,8.44,23.59,11.8
				c9.14-7.46,29.64-11.17,35.71-14.89c-1.01,5.69,2.22,12.83,1.67,18.51c16.16-2.98,29.98,0.98,46.3-5.77
				c1.6,3.31-0.67,6.49,1.77,9.72c22.46-2.32,47.27,0.19,65.15,8.75c5.66-6.31,25.17-13.7,30.07-20.48
				c13.83,17.79,82.28,18.39,101.79,7.81c6.18,4.63,24.48,8.24,30.65,12.86c3.26-3.54,14.3-9.26,17.43-12.86
				c21.3,7.77,27.66,10.09,48.65,0.96c16.44,3.31,23.97,8.91,46.74,4.2c0.7,2.18,1.38,4.37,2.05,6.55
				c22.22-4.86,41.1-19.47,64-26.36c19.28,16.97,63.06,23.78,96.13,15.71c11.68,16.67,71.81,5.6,96.24-3.9
				c-0.04,4.64,1.5,9.9,1.82,14.52c29.87-6.68,76.43-2.88,96.96-18.84c1.9,3.87,9.73,8.66,11.1,15.15
				c19.78-7.71,29.88-5.91,42.23-0.28c33.62-8.51,96.15,1.55,124.22,15.78c0.4-4.72,1.6-9.83,1.79-14.52
				c24.41,5.13,53.77,12.97,60.2-7.9c14.78,3.54,38.32,5.62,52.02,10.64c2.64-2.01,4.31-5.77,6.88-7.83
				c7.51,7.38,26.34,11.84,34.86,18.55c4.19-0.7,9.59-5.16,13.37-6.73c18.95,13.69,42.86,5.81,59.02-7.04
				c3.8,6.61,9.54,7.81,13.23,11.89c9.39-5.65,25.99-7.13,34.96-11.77c-0.03,4.76,1.44,10.08,1.49,14.89
				c10.3-5.6,36.5-10.23,46.44-14.82c1.42,3.73,0.42,6.94,1.77,10.65c34.52,0.63,49.49-19.45,82.46-9.57
				c0.77,4.01,1.53,8.77,2.11,12.8c4.94-4.19,12.07-7.38,16.68-10.93c5.6,4.92,19,10.13,22.83,15.81c3.02-2.18,1.71-8.24,2.2-11.05
				c9.59,3.01,18.73,5.82,28.01,6.85c0.82-2.18,1.55-4.36,2.19-6.57c10.7,2.18,29.06,0.39,40.13,2.77
				c1.29-3.59-0.69-7.34,1.76-10.68c36.18,1.5,61.43-3.61,94.66,2.75c-1.82-3.61-4.01-6.95-5.14-10.75
				c12.42,1.73,30.41,0.87,41.33,2.87c-0.03-2.44-1.11-4.67-3.23-6.68c12.78,5.11,27.13,4.07,39.1,6.75
				c-2.89-5.96-2.2-13.42-4.49-18.62c4.88,3.84,21.21,9.22,28.24,14.14c2.15-8.27,9.29-10.45,12.75-17.12
				c4.36,4.67,18.16,9.95,22.83,13.98c3.5-8.49,11.77-14.42,14.53-22.63c1.78,4.11,10.93,9.55,11.72,18.93
				c18.09-11.45,31.65-26.32,53.15-34.76c3.49,5.6,11.45,12.59,13.66,18.22c-1.08-17.99,7.58-33.49,39.52-30.72
				c0.03-12.87-5.81-26.69-15.16-37.23c8.8,3.54,20.21,4.06,27.28,6.12c-4.67-6.42-3.11-18.55-8.92-26.29
				c9.33,1.03,23.6-2.42,33.14-1.22c3.5-17.7-15.38-31.05-30.14-44.89c10.21,5.19,22.4,6.73,30.29,9.62
				c-10.94-9.89-23.2-23.83-28.84-36.99c5.68,0.66,7.55,3.99,11.73,5.3c5.49-17.06,13.82-25.54,12.6-45.22
				c7.25,1.98,19.26,3.31,27.32,6.81c-23.42-8.68-44.92-20.93-62.13-34.06c-1.4,0.37,13.83,2.77,14.71,2.81
				c-0.73-2.44-3.27-16.41-2.72-18.45c8.06,0.35,18.65-1.46,26.99-0.87c-6.18-9-2.02-17.14-15.31-26.45
				c10.74-9.16,4.47-10.65,8.76-23.58c-2.49-0.21-4.15,0.43-4.97,1.9c2.06-16.91-2.55-20.93-12.16-27.35
				c4.69-14.49-3.45-23.19-17.88-33.33c-5.69,1.29-11.51,2.11-16.66,3.21c2.54-12.24-3.56-22.96,4.38-34.17
				c-3.61-1.48-12.55,2.35-16.4,2.95c-4.91-3.3-1.92-10.95-8.24-14.84c-5.45,2.97-16.4,6.61-23.11,10.15
				c2.79-9.64-2.71-20.43-0.94-29.69c-5.58,5.13-23.1,10.91-28.96,15.78c-4.1-5.12-20.59-12.6-24.18-16.74
				c-2.82,1.15-6.42,7.69-6.87,7.8c-9.74-3.7-29.42-3.93-39.99-6.66c-0.42,2.15,0.78,8.3-0.42,9.75
				c-12.86-11.02-29.11-14.68-47.63-17.66c0.2,4.6-1.81,9.99-1.68,14.62c-14.64-4.88-35.97-4.67-52.39-6.71
				c-0.11,4.66-1.53,9.85-1.81,14.52c-13.05-5.23-37.47-7.3-52.56-10.91c1.09,5.77-2.67,13.32-1.38,19.02
				c-12.04-6.31-35.53-7.06-46.49-11.01c-1.5,3.64-0.66,7.04-1.67,10.75c-21.74-4.18-45.94-12.06-70.16-10.58
				c-0.71,2.25-1.4,4.5-2.07,6.75c-5.12-3.71-23.08-7.9-29.31-11.98c-4.91,8.16-24.72,18.72-28.72,23.78
				c-11.03-14.92-37.68-12.76-60.2-8.1c-1.6-3.8,0.11-7.01-1.44-10.83c-10.08,5.6-29.95,10.29-40.46,17.87
				c-0.75-4.33-1.33-9.15-1.94-13.68c-34.4,4.04-89.29-9.59-108.71,14.73c-22.71-20.6-84.89-7.27-111.76,3.73
				c-2.04-3.57-0.42-6.97-1.75-10.65c-26.58,7.53-52.44,1.34-82.2,6.76c-12.19-17.73-35.63-7.79-54.22-0.12
				c-9.04-31.42-39.9-12.17-59.42,3.92c-10.41-8.03-26.39-8.8-36.68-14.66c-1.19,3.77-0.19,7.13-1.78,10.86
				c-15.72-3.29-36.89-4.84-52.28-10.84c2.72,6.57,0.42,12.07,4.8,18.62c-17.58-5.92-39.23-9.92-58.72-10.61
				c-2.44,6.29-11.14,11.73-13.22,15.6c-3.84-3.96-13.54-8.72-17.68-12.76c-1.66,1.74-10.29,9.15-13.22,11.68
				c-7.22-4.36-26.82-9.22-35.33-17.85c-6.33,12.54-18.81,23.59-36.04,30.63c-14.49-17.36-39.09-11.66-58.75,1.97
				c-2.38-3.33,0.23-6.31-1.92-9.78c-10.18,2.13-24.28,1.5-35.12,3.73c-8.25-10.86-20.13-20.43-35.22-27.35
				c-0.73,2.28-1.34,4.56-1.87,6.85c-22.19-3.31-40.8-16-64.17-18.48c-1.24,3.51-0.03,6.64-1.77,9.99
				c-13.86-8.24-27.08-5.82-40.58-9.97c3.05,9.36-1.25,21.67,4.32,30.38c-1.78,0.17-13.34-2.67-15.58-3.03
				c-4.45,7.22-15.49,17.57-18.5,22.61c3.41-6.73,3.05-12.29,4.2-18.88c-12.59,6.9-30.71,12.3-41.56,21.84
				c1.53-21.89-19.78-28.27-41.45-12.01c-10.1-7.93-18.88-7.18-25.22-17.29c-24.94,2.87-50.39-7.64-64.11-15.78
				c2.31,4.24,2.27,13.2,4.49,18.44c-25.24,3.61-30,3.5-34.14,19.89c-1.42-3.24-2.46-7.67-2.19-11
				c-16.46,6.15-38.13,10.48-59.19,7.31L1310.93,1510.93z"/>
			<path class="st7" d="M960.69,624.2c-6.64,0.08-64.85-17.99-85.74-23.92c6.47,3.39,11.74,8.33,17.7,11.71
				c-11.37-3.86-26.41-1.25-38.7-3.05c3.58,4.65,3.62,12.87,9.18,18.35c-8.45,0.85-21.24,2.41-29.55,1.38
				c-1.19,3.19,1.32,8.03-1.14,10.68c-20.39-1.72-40.5,1.86-60.23,4.95c-1.49,3.68,0.29,6.97-1.42,10.58
				c-10.25-1.36-24.63,2.78-34.85,1.15c2.61,3.19,4.05,7.48,8.29,11.42c-10.13-0.7-23.39,1.76-32.64,0.49
				c2.94,1.49,11.22,3.67,12.3,6.26c-18.77-2.31-35.57,1.74-44.12,12.7c8.27,2.01,15.76,6.4,24.66,8.39
				c-15.19,5.44-30.73,14.28-26.69,26.65c-11.72,1.63-21.18,8.89-28.55,10.88c7.47,1.4,10.9,3.06,15.59,4.66
				c-6.49,1.22-20.25,9.6-27.18,11.63c4.18,1.96,11.58,8.79,17.33,11.62c-10.5,8.71-24.61,19.04-36.79,26.95
				c7.88-0.36,17.28,1.5,25.14,1.18c-9.45,10.69-27.62,21.31-40.21,29.86c10.25-1.37,24.34,2.21,34.87,1.38
				c-6.14,10.83-4.79,18.02-20.92,26.95c5.65,1.96,13.96,9.29,21.06,11.43c-4.49,3.05-10.21,12.38-17.14,15.92
				c10.17-1.3,23.03,1.73,31.31,1.26c-8.89,6.55-13.04,19.86-18.35,25.29c7.27-0.83,17.12,1.47,24.63,1.17
				c-2.07,6.99-0.81,20.09-3.6,26.49c1.15-1.16,8.14-6.3,3.58-4.49c2.82,10.45,10.85,18.84,15.87,28c9.02-0.09,1.64-3.72,4.85-6.34
				c3.98,6.89,10.83,15.53,14.12,21.63c0.91-2.44,2.99-3.58,6.23-3.4c6.47,13.58,17.12,21.03,30.21,30.06
				c-0.08-1.94-0.49-7.58,0.49-9.32c6.62,11.29,16.66,14.56,25.07,21.82c1.16-2.01,1.34-4.04,0.49-6.09
				c9.84,10.84,20.51,24.4,29.95,33.59c1.27-3.87,1.07-7.51,1.89-11.47c5.22,9.37,14.1,21.85,15.34,34.91
				c2.87,1.36,10.33-2.8,13.71-3.24c-1.28,3.28-3.23,11.22-3.98,14.56c7.22-2.15,22.38-0.49,29.57-2.6
				c0.64,4.76,1.07,9.67,1.51,14.43c19.64,2.68,36.52-4.78,49.62-14.63c3.89,8.15,12.21,10.12,16.23,14.92
				c8.96-23.17,33.06-28.1,55.24-12.38c0.56-6.19,6.23-12.48,7.02-18.39c34.09,15.26,68.43-16.95,79.31,14.28
				c5.45-6.81,16.75-9.49,21.72-14.08c5.37,4.75,16.69,8.14,21.1,12.19c0.35-5.29,10.24-17.27,10.9-23.87
				c5.57,2.63,23.47,4.11,28.74,6.88c-1.94-8.44,5.8-20.13,5.64-26.53c7.67,2.38,18.69,1.27,25.19,3.02
				c-0.34-5.69,2.14-12.7,1.53-18.35c7.12,0.79,16.77-1.53,24.03-0.97c-3.76-27.03,34.32-21.85,27.08-45.71
				c-0.05-0.68,5.58-4.62,6.1-7.38c-3.38-1.11-4.09-5.81-7.72-5.2c7.35,0.24,19.79-6.22,30.92-8.51c1.43-5.02-1.67-9.32-3.68-14.08
				c4.78-5.37,10.38-7.15,14.2-12.69c-2.9-0.82-12.22-3-14.96-4.29c16.61-9.88,32.49-21.82,35.24-37.88
				c-11.66,2.17-26.9,0.44-39.11,4.87c15.94-7.46,24.8-18.84,23.54-32.41c-3.46,1.15-11.44,4.71-14.92,5.15
				c3.6-20.04,7.54-40.34,5.45-60.82c3.77-3.46-2.62,3.61-3.97,4.69c2.24-9.13-2.32-21.66-1.9-31.1c-3.53,1.83-13.7,4.06-19.2,7.28
				c-1.75-4.05,7.79-8.76,5.52-11.83c-3.96-0.6-19.64-1.96-24.65-3.43c3.56-2.59,8.07-3.98,10.8-7.04
				c-17.4-4.4-35.02-8.71-52.5-13.18c4.04,0.42,9.79,2.89,13.8,3.83c-9.42-5.74-16.81-13.82-28.39-19.16
				c2.6-0.77,10.1-0.13,13.16-0.17c-12.72-8.75-4.91-11.63-26.21-15.32c14.2-8.14,10.87-35.55-20.58-16.7
				c-15.94-19.46-39.68-17.05-59.1-37.64c-3.47,5.54-8.63,8.35-11.52,12.01c-4.45-7.29-21-14.74-25.55-19.72
				c-4.05,3.43-10.67,8.05-13.83,10.94c-13.22-8.98-17.7-4.81-25.83-7.89c-8.33-11.23-15.48-5.21-31.84-3.44L960.69,624.2z"/>
		</g>
	</g>
</g>
<g id="眼镜">
	<circle id="底色" class="st8" cx="2652.83" cy="2255.8" r="367.71"/>
	<line id="左反光" class="st9" x1="2887.36" y1="1973.38" x2="2446.02" y2="2559.06"/>
	<line id="右反光" class="st10" x1="2986.21" y1="2100.44" x2="2595.4" y2="2619.06"/>
	<circle id="镜框" class="st11" cx="2652.87" cy="2255.8" r="367.71"/>
	<polyline id="镜架" class="st12" points="3262.94,2970.14 3262.94,2486.71 3015.71,2315.8 	"/>
</g>
<g id="胡子">
	<path id="胡子主体" d="M2049.25,3050.7c442.06,319.07,632.76,52.88,1225.35-294.5c-699.64,280.26-735.28-148.93-1205.16,145.74
		c-17.82,11.17-40.44,11.17-58.26,0c-469.87-294.67-505.52,134.52-1205.16-145.74c592.59,347.38,783.29,613.57,1225.35,294.5
		C2036.71,3046.86,2043.92,3046.86,2049.25,3050.7z"/>
</g>
</svg>
